/* XPM */
static char * C:\Users\User\Desktop\bitcoin16_xpm[] = {
"16 16 76 1",
" 	c #FFFFFF",
".	c #EEF6EA",
"+	c #C1DDB4",
"@	c #A1CC8D",
"#	c #95C57E",
"$	c #EEF6EB",
"%	c #FDFEFD",
"&	c #BFDCB1",
"*	c #8DC174",
"=	c #8BC072",
"-	c #8DC175",
";	c #C0DDB2",
">	c #ADD29B",
",	c #D6EACD",
"'	c #D2E6C8",
")	c #ADD39B",
"!	c #BFDCB2",
"~	c #DEEDD7",
"{	c #D6E8CE",
"]	c #E0EFDA",
"^	c #DFEDD8",
"/	c #DAECD3",
"(	c #DDEDD5",
"_	c #C1DDB3",
":	c #9ECA89",
"<	c #A9D197",
"[	c #DDECD6",
"}	c #E9F3E3",
"|	c #DBEBD2",
"1	c #DFEDD7",
"2	c #EAF3E5",
"3	c #D9EAD1",
"4	c #EFF6EB",
"5	c #E2EFDA",
"6	c #D9EAD0",
"7	c #DFEED8",
"8	c #D7E9CE",
"9	c #C2DEB5",
"0	c #AFD49E",
"a	c #E1EEDA",
"b	c #C7E1BA",
"c	c #E5F1DE",
"d	c #BADAAC",
"e	c #B8D9A9",
"f	c #E4EFDE",
"g	c #C8E0BC",
"h	c #DFEED9",
"i	c #A2CD8E",
"j	c #94C57D",
"k	c #BCDAAD",
"l	c #D9EBD2",
"m	c #E8F3E4",
"n	c #E9F3E4",
"o	c #DAEBD2",
"p	c #BBDAAD",
"q	c #ADD29C",
"r	c #DCECD6",
"s	c #E7F3E1",
"t	c #E7F2E2",
"u	c #DEECD8",
"v	c #E8F3E2",
"w	c #D1E6C7",
"x	c #A0CB8D",
"y	c #C8E2BD",
"z	c #EDF5EA",
"A	c #EBF5E7",
"B	c #8BC074",
"C	c #9FCB8D",
"D	c #D0E5C6",
"E	c #8FC278",
"F	c #9FCB8B",
"G	c #8EC175",
"H	c #AED39C",
"I	c #8FC276",
"J	c #C2DEB4",
"K	c #EFF6EC",
"    .+@##@+$    ",
"  %&*======-;%  ",
" %>====,'====)% ",
" !===~{]^/(===_ ",
".*=:<[}|123<:=-4",
"+==56==78==65==9",
"@0abc==de==fgh0i",
"jklmn==de==nnopj",
"jqrshtpde+tuv[)j",
"@/wx=*yzA9B=CD|i",
"+EF====de====FE9",
".-=====de=====G4",
" ;=====de=====+ ",
" %)====de====H% ",
"  %_-==II==-+%  ",
"    4Ji##i9K    "};
