/* XPM */
static char * C:\Users\User\Desktop\bitcoin32_xpm[] = {
"31 31 168 2",
"  	c #FFFFFF",
". 	c #FCFDFB",
"+ 	c #DDECD6",
"@ 	c #BFDCB1",
"# 	c #AAD198",
"$ 	c #9BC986",
"% 	c #93C47C",
"& 	c #9CC986",
"* 	c #BFDCB2",
"= 	c #DDEDD6",
"- 	c #FCFEFC",
"; 	c #F3F9F1",
"> 	c #8BC072",
", 	c #C0DDB2",
"' 	c #F4F9F1",
") 	c #FDFEFD",
"! 	c #C7E1BC",
"~ 	c #90C278",
"{ 	c #C8E1BD",
"] 	c #FEFEFD",
"^ 	c #F9FCF8",
"/ 	c #AED39C",
"( 	c #ABD199",
"_ 	c #F8FBF6",
": 	c #F0F7EC",
"< 	c #9DCA88",
"[ 	c #97C681",
"} 	c #D5E8CC",
"| 	c #8FC276",
"1 	c #F2F8F0",
"2 	c #DAEBD2",
"3 	c #E6F1E0",
"4 	c #E0EEDA",
"5 	c #F8FBF7",
"6 	c #C7E0BB",
"7 	c #FBFDFA",
"8 	c #F2F8EE",
"9 	c #96C67F",
"0 	c #FBFDFB",
"a 	c #ACD29A",
"b 	c #C1DDB3",
"c 	c #F1F8EE",
"d 	c #A9D096",
"e 	c #F7FAF5",
"f 	c #F9FCF7",
"g 	c #B1D5A0",
"h 	c #C8E1BC",
"i 	c #8BC074",
"j 	c #FFFFFE",
"k 	c #ADD39B",
"l 	c #DBEBD3",
"m 	c #DCECD5",
"n 	c #C9E1BD",
"o 	c #FEFEFE",
"p 	c #FCFDFC",
"q 	c #B3D6A2",
"r 	c #F7FBF6",
"s 	c #CDE4C2",
"t 	c #E5F1DF",
"u 	c #95C57E",
"v 	c #DEEDD6",
"w 	c #DBECD3",
"x 	c #9CCA87",
"y 	c #D7EACE",
"z 	c #CEE4C3",
"A 	c #94C57D",
"B 	c #E8F2E3",
"C 	c #A7CF94",
"D 	c #B4D6A4",
"E 	c #F1F7EE",
"F 	c #E1EEDA",
"G 	c #EEF6EA",
"H 	c #FAFCF9",
"I 	c #E6F1E1",
"J 	c #EAF3E5",
"K 	c #FDFDFC",
"L 	c #E6F2E0",
"M 	c #EAF4E6",
"N 	c #EEF5EA",
"O 	c #A1CB8D",
"P 	c #C2DEB5",
"Q 	c #D2E7C9",
"R 	c #E9F3E4",
"S 	c #CCE3C1",
"T 	c #DFEED9",
"U 	c #CFE5C4",
"V 	c #D2E7C8",
"W 	c #E2EFDC",
"X 	c #D4E8CA",
"Y 	c #A3CD8F",
"Z 	c #E3EFDC",
"` 	c #DAECD3",
" .	c #FEFFFE",
"..	c #E1EFDB",
"+.	c #A0CC8B",
"@.	c #DFEED8",
"#.	c #A4CD91",
"$.	c #D0E6C6",
"%.	c #D1E5C6",
"&.	c #F8FCF6",
"*.	c #A5CE92",
"=.	c #E5F1E0",
"-.	c #9FCB8B",
";.	c #F6FAF4",
">.	c #D1E6C7",
",.	c #E3F0DD",
"'.	c #92C47B",
").	c #91C47A",
"!.	c #97C680",
"~.	c #E4F0DE",
"{.	c #F5FAF3",
"].	c #9AC885",
"^.	c #B2D5A2",
"/.	c #FAFCF8",
"(.	c #BDDCAF",
"_.	c #BEDCAF",
":.	c #F6FAF3",
"<.	c #E8F2E2",
"[.	c #FAFCFA",
"}.	c #E0EED9",
"|.	c #FBFEFA",
"1.	c #C1DDB4",
"2.	c #A7CF93",
"3.	c #EBF4E6",
"4.	c #B1D5A1",
"5.	c #BAD9AB",
"6.	c #FDFEFC",
"7.	c #8DC174",
"8.	c #F6FBF5",
"9.	c #F4F9F2",
"0.	c #EAF4E5",
"a.	c #94C57E",
"b.	c #DAEBD3",
"c.	c #C1DEB4",
"d.	c #8CC074",
"e.	c #C7E1BB",
"f.	c #D8EAD0",
"g.	c #FCFEFB",
"h.	c #F2F8EF",
"i.	c #8CC174",
"j.	c #CCE4C2",
"k.	c #91C378",
"l.	c #D4E8CB",
"m.	c #EFF6EB",
"n.	c #F1F8EF",
"o.	c #8DC276",
"p.	c #CEE3C2",
"q.	c #E1EFDA",
"r.	c #DCECD4",
"s.	c #FAFDFA",
"t.	c #F4F9F3",
"u.	c #BEDCB0",
"v.	c #DEEDD7",
"w.	c #A9D197",
"x.	c #C0DDB3",
"y.	c #C3DFB7",
"z.	c #90C378",
"A.	c #C9E2BD",
"B.	c #ABD299",
"C.	c #9FCB8A",
"D.	c #9AC884",
"E.	c #9ECA89",
"F.	c #F0F7ED",
"G.	c #99C883",
"H.	c #98C782",
"I.	c #ADD29B",
"J.	c #CDE4C3",
"K.	c #C3DEB6",
"                    . + @ # $ % % & # * = -                   ",
"                ; * % > > > > > > > > > > % , '               ",
"            ) ! ~ > > > > > > > > > > > > > > ~ { ]           ",
"          ^ / > > > > > > > > > > > > > > > > > > ( _         ",
"        : < > > > > > > > > [ + } | > > > > > > > > < :       ",
"      _ < > > > > > > > > > 1 2 3 4 > > > > > > > > > < 5     ",
"    ) ( > > > > > > 6 7 8 9 0 a b c d e f g > > > > > > a ]   ",
"    h > > > > > > i j k l m n o p q 8 { * r > > > > > > > s   ",
"  ; ~ > > > > > > > ] * t ; u v w x ^ y z ' > > > > > > > A 5 ",
"  * > > > > i y B C D E F G H I J K L M N O C B y i > > > > P ",
"- A > > > > Q R S 7 > > > > T   ) U > > > > . S R V > > > > A ",
"= > > > > > W X Y j > > > > > Z ` > > > > i  .Y X ..> > > > > ",
"* > > +.I @.#.f ] $.> > > > > + w > > > > > %.] &.*.@.=.-.> > ",
"# > > ;.>...,.9  .'.> > > > > + w > > > > > ). .!.~.F >.{.> > ",
"].> > 7 ^.h {.O /.(.> > > > > + w > > > > > _./.+.:.h ^.. > > ",
"A > > P ) ^ <.  [.}.> > > > > + w > > > > > }.|.  B H ) 1.> > ",
"A > > i 2.| +.3. .) 8 4.> > > + w > > > 5.' 6.  3.+.| 2.i > > ",
"].> 7.8.9.p  .0.*.a.b.] r c.> + w d.e._ p f.A *.0. .g.9.;.7.> ",
"# > k h.i.}.j.> > > > k.l.6.f m.n.- H S o.> > > > p.q.i.1 a > ",
", > % 6.r.s.C > > > > > > 7.S _ t.u.> > > > > > > C s.r.6.% > ",
"v.> > -.$.w.> > > > > > > > > + w > > > > > > > > > w.$.-.> > ",
"- A > > > > > > > > > > > > > + w > > > > > > > > > > > > > u ",
"  x.> > > > > > > > > > > > > + w > > > > > > > > > > > > > y.",
"  ' z.> > > > > > > > > > > > + w > > > > > > > > > > > > u f ",
"    A.> > > > > > > > > > > > + w > > > > > > > > > > > > z   ",
"     ./ > > > > > > > > > > > + w > > > > > > > > > > > B.]   ",
"      ^ C.> > > > > > > > > > + w > > > > > > > > > > < _     ",
"        : D.> > > > > > > > > + w > > > > > > > > > E.F.      ",
"          ' C > > > > > > > > G.H.> > > > > > > > I.5         ",
"            ) s A > > > > > > > > > > > > > > A J.]           ",
"                5 P A > > > > > > > > > > A K.f               "};
