/* XPM */
static char * C:\Users\User\Desktop\bitcoin64_xpm[] = {
"63 63 232 2",
"  	c #FFFFFF",
". 	c #FDFEFD",
"+ 	c #E6F1E1",
"@ 	c #D2E7C9",
"# 	c #C1DDB3",
"$ 	c #AFD49E",
"% 	c #A6CF93",
"& 	c #A2CC8E",
"* 	c #9AC885",
"= 	c #A7CF94",
"- 	c #C1DDB4",
"; 	c #E6F2E1",
"> 	c #F4F9F1",
", 	c #CCE3C1",
"' 	c #ADD29B",
") 	c #90C379",
"! 	c #8BC072",
"~ 	c #91C379",
"{ 	c #ADD39B",
"] 	c #CDE4C2",
"^ 	c #F4F9F2",
"/ 	c #FEFFFE",
"( 	c #D9EAD1",
"_ 	c #ACD29A",
": 	c #8CC174",
"< 	c #FDFEFC",
"[ 	c #D3E7CA",
"} 	c #9DCA88",
"| 	c #D4E8CA",
"1 	c #E3F0DD",
"2 	c #9FCB8A",
"3 	c #9CC987",
"4 	c #E0EED9",
"5 	c #F8FBF6",
"6 	c #B5D7A5",
"7 	c #8BC073",
"8 	c #B6D7A6",
"9 	c #F8FBF7",
"0 	c #E8F2E3",
"a 	c #9BC985",
"b 	c #99C883",
"c 	c #E6F1E0",
"d 	c #D1E6C7",
"e 	c #8EC175",
"f 	c #8EC276",
"g 	c #D2E7C8",
"h 	c #C6E0BA",
"i 	c #95C67E",
"j 	c #8DC276",
"k 	c #C7E1BB",
"l 	c #BEDCB0",
"m 	c #B8D9A9",
"n 	c #FBFDFA",
"o 	c #EFF7EC",
"p 	c #BFDCB2",
"q 	c #C6E0B9",
"r 	c #A8D096",
"s 	c #FEFEFE",
"t 	c #FAFCF8",
"u 	c #F7FBF5",
"v 	c #8BC074",
"w 	c #E9F3E5",
"x 	c #8DC174",
"y 	c #98C782",
"z 	c #F3F9F1",
"A 	c #A2CD8E",
"B 	c #E5F1E0",
"C 	c #E7F2E2",
"D 	c #A5CE92",
"E 	c #F6FAF4",
"F 	c #ABD199",
"G 	c #D5E8CC",
"H 	c #CFE5C5",
"I 	c #C8E2BD",
"J 	c #EFF6EB",
"K 	c #F2F8EF",
"L 	c #9AC884",
"M 	c #B0D49F",
"N 	c #FFFFFE",
"O 	c #D7EACF",
"P 	c #8FC276",
"Q 	c #9CC986",
"R 	c #F5F9F2",
"S 	c #DAEBD2",
"T 	c #AED39D",
"U 	c #D7E9CE",
"V 	c #FAFDF9",
"W 	c #FCFEFC",
"X 	c #B3D6A2",
"Y 	c #BCDAAD",
"Z 	c #B4D6A4",
"` 	c #D0E6C6",
" .	c #B7D8A7",
"..	c #E2EFDC",
"+.	c #8FC278",
"@.	c #8FC277",
"#.	c #8DC175",
"$.	c #B3D6A3",
"%.	c #ECF5E8",
"&.	c #D8EAD0",
"*.	c #CFE5C4",
"=.	c #BAD9AB",
"-.	c #EDF5E9",
";.	c #9ECA89",
">.	c #97C781",
",.	c #A3CD8E",
"'.	c #DCECD4",
").	c #C7E1BC",
"!.	c #9FCB8B",
"~.	c #F3F8F0",
"{.	c #D3E7C9",
"].	c #F1F8EE",
"^.	c #E1EEDA",
"/.	c #B7D8A8",
"(.	c #FEFEFD",
"_.	c #9BC886",
":.	c #B1D5A1",
"<.	c #95C57E",
"[.	c #97C681",
"}.	c #F6FBF5",
"|.	c #F6FAF5",
"1.	c #F9FCF8",
"2.	c #BFDDB2",
"3.	c #E0EEDA",
"4.	c #D7E9CF",
"5.	c #EBF5E7",
"6.	c #B9D9AA",
"7.	c #BBDAAD",
"8.	c #94C47D",
"9.	c #F1F7EE",
"0.	c #F2F8F0",
"a.	c #DDECD7",
"b.	c #CAE2BE",
"c.	c #CEE5C3",
"d.	c #A3CD8F",
"e.	c #EBF4E7",
"f.	c #FBFDFB",
"g.	c #E9F3E4",
"h.	c #DBECD3",
"i.	c #E5F1DF",
"j.	c #DCECD5",
"k.	c #FCFDFB",
"l.	c #A0CC8C",
"m.	c #D0E5C5",
"n.	c #ACD299",
"o.	c #A1CC8D",
"p.	c #F5FAF3",
"q.	c #9CCA87",
"r.	c #CDE4C3",
"s.	c #C0DDB2",
"t.	c #97C680",
"u.	c #C9E2BE",
"v.	c #93C47C",
"w.	c #A5CD91",
"x.	c #BDDBAF",
"y.	c #CEE4C3",
"z.	c #92C47A",
"A.	c #D1E5C6",
"B.	c #C5E0B8",
"C.	c #FBFDF9",
"D.	c #BADAAC",
"E.	c #F8FBF8",
"F.	c #F9FCF7",
"G.	c #BCDBAE",
"H.	c #E8F3E3",
"I.	c #FAFCF9",
"J.	c #B5D6A5",
"K.	c #FDFDFC",
"L.	c #B3D5A3",
"M.	c #F0F7ED",
"N.	c #C4DFB7",
"O.	c #91C37A",
"P.	c #A5CE91",
"Q.	c #C4DFB8",
"R.	c #F0F7EC",
"S.	c #C9E3BD",
"T.	c #A8D095",
"U.	c #F7FBF6",
"V.	c #E8F3E4",
"W.	c #91C378",
"X.	c #EEF6EA",
"Y.	c #EAF4E5",
"Z.	c #FDFDFD",
"`.	c #A1CB8D",
" +	c #D9EAD0",
".+	c #CEE4C4",
"++	c #A9D097",
"@+	c #AFD49D",
"#+	c #D2E6C8",
"$+	c #91C47A",
"%+	c #A0CB8C",
"&+	c #8CC075",
"*+	c #EEF5EA",
"=+	c #A9D197",
"-+	c #F2F8EE",
";+	c #FCFDFC",
">+	c #95C57F",
",+	c #B2D5A1",
"'+	c #8CC074",
")+	c #AAD199",
"!+	c #E7F3E1",
"~+	c #B1D5A0",
"{+	c #EBF4E6",
"]+	c #C2DEB5",
"^+	c #91C479",
"/+	c #A0CB8B",
"(+	c #C3DFB7",
"_+	c #F5FAF2",
":+	c #E1EFDB",
"<+	c #F5F9F3",
"[+	c #ABD198",
"}+	c #B6D7A7",
"|+	c #A9D096",
"1+	c #EAF4E6",
"2+	c #DFEED8",
"3+	c #C3DEB7",
"4+	c #EAF3E5",
"5+	c #F7FAF5",
"6+	c #E4F0DE",
"7+	c #96C67F",
"8+	c #E4F1DF",
"9+	c #CEE5C4",
"0+	c #DBEBD3",
"a+	c #D6E9CD",
"b+	c #B8D8A8",
"c+	c #9BC986",
"d+	c #C8E1BD",
"e+	c #C9E2BD",
"f+	c #C5DFB8",
"g+	c #BBDAAC",
"h+	c #D4E8CB",
"i+	c #AED39C",
"                                                . + @ # $ % & * * & = $ - @ ; .                                               ",
"                                          > , ' ) ! ! ! ! ! ! ! ! ! ! ! ! ! ! ~ { ] ^                                         ",
"                                    / ( _ : ! ! ! ! ! ! ! ! ! ! ! ! ! ! ! ! ! ! ! ! : ' ( /                                   ",
"                                < [ } ! ! ! ! ! ! ! ! ! ! ! ! ! ! ! ! ! ! ! ! ! ! ! ! ! ! } | <                               ",
"                              1 2 ! ! ! ! ! ! ! ! ! ! ! ! ! ! ! ! ! ! ! ! ! ! ! ! ! ! ! ! ! ! 3 4                             ",
"                          5 6 7 ! ! ! ! ! ! ! ! ! ! ! ! ! ! ! ! ! ! ! ! ! ! ! ! ! ! ! ! ! ! ! ! 7 8 9                         ",
"                        0 a ! ! ! ! ! ! ! ! ! ! ! ! ! ! ! ! ! ! ! ! ! ! ! ! ! ! ! ! ! ! ! ! ! ! ! ! b c                       ",
"                      d e ! ! ! ! ! ! ! ! ! ! ! ! ! ! ! ! ! ! ! ! ! ! ! ! ! ! ! ! ! ! ! ! ! ! ! ! ! ! f g                     ",
"                    h ! ! ! ! ! ! ! ! ! ! ! ! ! ! ! ! ! ! ! ! i j ! ! ! ! ! ! ! ! ! ! ! ! ! ! ! ! ! ! ! 7 k                   ",
"                  l ! ! ! ! ! ! ! ! ! ! ! ! ! ! ! ! ! ! ! m n     o b ! ! ! ! ! ! ! ! ! ! ! ! ! ! ! ! ! ! ! p                 ",
"                q ! ! ! ! ! ! ! ! ! ! ! ! ! ! ! ! ! ! ! r s   t .   u v ! ! ! ! ! ! ! ! ! ! ! ! ! ! ! ! ! ! ! k               ",
"              d ! ! ! ! ! ! ! ! ! ! ! ! ! ! ! ! ! ! ! ! w   | x y z   6 ! ! ! ! ! ! ! ! ! ! ! ! ! ! ! ! ! ! ! 7 g             ",
"            ; e ! ! ! ! ! ! ! ! ! ! ! ! ! A B ^ C D ! ! E   F ! ! G   H ! ! I J K G x ! ! ! ! ! ! ! ! ! ! ! ! ! f 0           ",
"          5 L ! ! ! ! ! ! ! ! ! ! ! ! ! M N       / 6 ! w   O P Q R   6 ! +         E x ! ! ! ! ! ! ! ! ! ! ! ! ! a 9         ",
"          6 ! ! ! ! ! ! ! ! ! ! ! ! ! ! 9   S T U   V ! = s   W     E ! X   V Y Z z   ` ! ! ! ! ! ! ! ! ! ! ! ! ! !  .        ",
"        ..7 ! ! ! ! ! ! ! ! ! ! ! ! ! +.  < @.! #.t   i ! $.9     %.i ! &.  *.! ! =.  -.! ! ! ! ! ! ! ! ! ! ! ! ! ! 7 1       ",
"      < ;.! ! ! ! ! ! ! ! ! ! ! ! ! ! v N N * ! >..   ,.! ! ! / . ! ! ! U   '.! ! ).  C ! ! ! ! ! ! ! ! ! ! ! ! ! ! ! !..     ",
"      [ ! ! ! ! ! ! ! ! ! ! ! ! ! ! ! ! -.  ~.{.].    < _ ! ! s . ! ! q /     ^.( /   /.! ! ! ! ! ! ! ! ! ! ! ! ! ! ! ! G     ",
"    (.} ! ! ! ! ! ! ! ! ! ! ! _.:.<.! ! [.}.      |.1.    2.! s . v 3.    K /       4.! ! ! <.:._.! ! ! ! ! ! ! ! ! ! ! ;./   ",
"    ( ! ! ! ! ! ! ! ! ! ! +.5.      1 x ! v 6.g 7.v 8.9.    U s (.0.    a.v _.b.c.d.! ! j 1       e.+.! ! ! ! ! ! ! ! ! ! S   ",
"    _ ! ! ! ! ! ! ! ! ! ! C   f.g.<   h.! ! ! ! ! ! ! v i.    N     / q ! ! ! ! ! ! ! ! j.  < g.k.  C ! ! ! ! ! ! ! ! ! ! {   ",
"  > : ! ! ! ! ! ! ! ! ! +./ (.l.! _   . ! ! ! ! ! ! ! ! ! m.      W n.! ! ! ! ! ! ! ! ! .   F ! o.(./ P ! ! ! ! ! ! ! ! ! x R ",
"  , ! ! ! ! ! ! ! ! ! ! ;.  > ! ! e /   v ! ! ! ! ! ! ! ! ! Y N W [.! ! ! ! ! ! ! ! ! x   (.e ! ! p.  q.! ! ! ! ! ! ! ! ! ! r.",
"  ' ! ! ! ! ! ! ! ! ! ! ! .   s.t.b.  t ! ! ! ! ! ! ! ! ! ! ! s . ! ! ! ! ! ! ! ! ! ! ! 1.  u.t.s.  (.! ! ! ! ! ! ! ! ! ! ! T ",
". ~ ! ! ! ! ! ! v.X w.! ! H           x.! ! ! ! ! ! ! ! ! ! ! s . ! ! ! ! ! ! ! ! ! ! ! l           y.! ! w.X v.! ! ! ! ! ! z.",
"+ ! ! ! ! ! ! A.      5 w.! B.5   C.D.! ! ! ! ! ! ! ! ! ! ! ! s . ! ! ! ! ! ! ! ! ! ! ! ! 7.C.  E.B.! D F.      ` ! ! ! ! ! ! ",
"@ ! ! ! ! ! G.    H.p.  I.j ! J.  < ! ! ! ! ! ! ! ! ! ! ! ! ! s . ! ! ! ! ! ! ! ! ! ! ! ! ! K.  L.! j I.  p.H.    G.! ! ! ! ! ",
"# ! ! ! ! ! M.  N.! O.M.  6.! j     P.! ! ! ! ! ! ! ! ! ! ! ! s . ! ! ! ! ! ! ! ! ! ! ! ! D   N #.! =.  M.O.! Q.  R.! ! ! ! ! ",
"$ ! ! ! ! ! 5   = ! ! S   S.! ! ^   ` ! ! ! ! ! ! ! ! ! ! ! ! s . ! ! ! ! ! ! ! ! ! ! ! ! d   z ! ! u.  S ! ! T.  U.! ! ! ! ! ",
"% ! ! ! ! ! V.  ^.} $ n   n {.W.h.  X.! ! ! ! ! ! ! ! ! ! ! ! s . ! ! ! ! ! ! ! ! ! ! ! ! J   S +.` I.  n T } ^.  C ! ! ! ! ! ",
"o.! ! ! ! ! !./         <     (.g.  . ! ! ! ! ! ! ! ! ! ! ! ! s . ! ! ! ! ! ! ! ! ! ! ! ! .   Y..     Z.        / } ! ! ! ! ! ",
"a ! ! ! ! ! ! `.R.< I. ++..+f.        ++! ! ! ! ! ! ! ! ! ! ! s . ! ! ! ! ! ! ! ! ! ! ! @+        n #+$+ +I.< J %+! ! ! ! ! ! ",
"a ! ! ! ! ! ! ! ! ! ! ! ! ! &+C       s C `.! ! ! ! ! ! ! ! ! s . ! ! ! ! ! ! ! ! ! _ *+/       C &+! ! ! ! ! ! ! ! ! ! ! ! ! ",
"o.! ! ! ! ! ! +.6.N.y ! +.` f.    < ~.      -.=+! ! ! ! ! ! ! s . ! ! ! ! ! ! ! =.>       -+(.    n ` +.! y N.6.+.! ! ! ! ! ! ",
"% ! ! ! ! ! :.;+      C .     (.h.>+! ,+M.      z 6 ! ! ! ! ! s . ! ! ! ! '+h 5       *+)+! >+h.(.    . !+      W ~+! ! ! ! ! ",
"$ ! ! ! ! v.K.  %.4 N     k.#++.! ! ! ! ! T.{+      U.]+! ! ! s . ! ! ^+{.k.    N ; /+! ! ! ! ! W.g k.    N 4 %.  K.v.! ! ! ! ",
"- ! ! ! ! ]+  g.x ! (+  M.v ! ! ! ! ! ! ! ! ! /+i./     9 h v s . >.'.(.    . S i ! ! ! ! ! ! ! ! ! x ].  ]+! x g.  - ! ! ! ! ",
"{.! ! ! ! .+  G ! ! $   _+! ! ! ! ! ! ! ! ! ! ! ! _.:+s     k./ s /     n y.P ! ! ! ! ! ! ! ! ! ! ! ! <+  T ! ! U   c.! ! ! ! ",
"; ! ! ! ! [+  n }+|+1+  2+! ! ! ! ! ! ! ! ! ! ! ! ! ! i h.(.        5 3+7 ! ! ! ! ! ! ! ! ! ! ! ! ! ! 2+  4+|+ .f.  =+! ! ! ! ",
". ~ ! ! ! ! B         f.i ! ! ! ! ! ! ! ! ! ! ! ! ! ! ! ! W.{.(.. X ! ! ! ! ! ! ! ! ! ! ! ! ! ! ! ! ! i n         B ! ! ! ! z.",
"  ' ! ! ! ! ! y.R 5+6+7+! ! ! ! ! ! ! ! ! ! ! ! ! ! ! ! ! ! ! s . ! ! ! ! ! ! ! ! ! ! ! ! ! ! ! ! ! ! ! [.8+5 _+c.! ! ! ! ! T ",
"  ] ! ! ! ! ! ! ! ! ! ! ! ! ! ! ! ! ! ! ! ! ! ! ! ! ! ! ! ! ! s . ! ! ! ! ! ! ! ! ! ! ! ! ! ! ! ! ! ! ! ! ! ! ! ! ! ! ! ! ! 9+",
"  R x ! ! ! ! ! ! ! ! ! ! ! ! ! ! ! ! ! ! ! ! ! ! ! ! ! ! ! ! s . ! ! ! ! ! ! ! ! ! ! ! ! ! ! ! ! ! ! ! ! ! ! ! ! ! ! ! ! x R ",
"    _ ! ! ! ! ! ! ! ! ! ! ! ! ! ! ! ! ! ! ! ! ! ! ! ! ! ! ! ! s . ! ! ! ! ! ! ! ! ! ! ! ! ! ! ! ! ! ! ! ! ! ! ! ! ! ! ! ! T   ",
"    S ! ! ! ! ! ! ! ! ! ! ! ! ! ! ! ! ! ! ! ! ! ! ! ! ! ! ! ! s . ! ! ! ! ! ! ! ! ! ! ! ! ! ! ! ! ! ! ! ! ! ! ! ! ! ! ! ! 0+  ",
"    / 2 ! ! ! ! ! ! ! ! ! ! ! ! ! ! ! ! ! ! ! ! ! ! ! ! ! ! ! s . ! ! ! ! ! ! ! ! ! ! ! ! ! ! ! ! ! ! ! ! ! ! ! ! ! ! ! ;./   ",
"      | ! ! ! ! ! ! ! ! ! ! ! ! ! ! ! ! ! ! ! ! ! ! ! ! ! ! ! s . ! ! ! ! ! ! ! ! ! ! ! ! ! ! ! ! ! ! ! ! ! ! ! ! ! ! ! a+    ",
"      . 2 ! ! ! ! ! ! ! ! ! ! ! ! ! ! ! ! ! ! ! ! ! ! ! ! ! ! s . ! ! ! ! ! ! ! ! ! ! ! ! ! ! ! ! ! ! ! ! ! ! ! ! ! ! /+(.    ",
"        6+7 ! ! ! ! ! ! ! ! ! ! ! ! ! ! ! ! ! ! ! ! ! ! ! ! ! s . ! ! ! ! ! ! ! ! ! ! ! ! ! ! ! ! ! ! ! ! ! ! ! ! ! 7 ..      ",
"          }+! ! ! ! ! ! ! ! ! ! ! ! ! ! ! ! ! ! ! ! ! ! ! ! ! s . ! ! ! ! ! ! ! ! ! ! ! ! ! ! ! ! ! ! ! ! ! ! ! ! ! b+        ",
"          1.3 ! ! ! ! ! ! ! ! ! ! ! ! ! ! ! ! ! ! ! ! ! ! ! ! s . ! ! ! ! ! ! ! ! ! ! ! ! ! ! ! ! ! ! ! ! ! ! ! ! c+9         ",
"            C f ! ! ! ! ! ! ! ! ! ! ! ! ! ! ! ! ! ! ! ! ! ! ! s . ! ! ! ! ! ! ! ! ! ! ! ! ! ! ! ! ! ! ! ! ! ! ! f H.          ",
"              g 7 ! ! ! ! ! ! ! ! ! ! ! ! ! ! ! ! ! ! ! ! ! ! s . ! ! ! ! ! ! ! ! ! ! ! ! ! ! ! ! ! ! ! ! ! ! 7 [             ",
"                k ! ! ! ! ! ! ! ! ! ! ! ! ! ! ! ! ! ! ! ! ! ! s . ! ! ! ! ! ! ! ! ! ! ! ! ! ! ! ! ! ! ! ! ! ! d+              ",
"                  p ! ! ! ! ! ! ! ! ! ! ! ! ! ! ! ! ! ! ! ! ! s . ! ! ! ! ! ! ! ! ! ! ! ! ! ! ! ! ! ! ! ! ! s.                ",
"                    e+7 ! ! ! ! ! ! ! ! ! ! ! ! ! ! ! ! ! ! ! s . ! ! ! ! ! ! ! ! ! ! ! ! ! ! ! ! ! ! ! 7 f+                  ",
"                      g f ! ! ! ! ! ! ! ! ! ! ! ! ! ! ! ! ! ! x.g+! ! ! ! ! ! ! ! ! ! ! ! ! ! ! ! ! ! P [                     ",
"                        H.c+! ! ! ! ! ! ! ! ! ! ! ! ! ! ! ! ! ! ! ! ! ! ! ! ! ! ! ! ! ! ! ! ! ! ! ! b +                       ",
"                          9  .7 ! ! ! ! ! ! ! ! ! ! ! ! ! ! ! ! ! ! ! ! ! ! ! ! ! ! ! ! ! ! ! ! 7 b+F.                        ",
"                              6+!.! ! ! ! ! ! ! ! ! ! ! ! ! ! ! ! ! ! ! ! ! ! ! ! ! ! ! ! ! ! /+6+                            ",
"                                / &.;.! ! ! ! ! ! ! ! ! ! ! ! ! ! ! ! ! ! ! ! ! ! ! ! ! ! ;.h+.                               ",
"                                    / S { x ! ! ! ! ! ! ! ! ! ! ! ! ! ! ! ! ! ! ! ! x i+S /                                   ",
"                                          R y.T O.! ! ! ! ! ! ! ! ! ! ! ! ! ! z.T 9+p.                                        "};
